<?xml version="1.0" encoding="UTF-8" standalone="no"?>
<svg width="130px" height="48px" viewBox="0 0 130 48" version="1.1" xmlns="http://www.w3.org/2000/svg" xmlns:xlink="http://www.w3.org/1999/xlink" xmlns:sketch="http://www.bohemiancoding.com/sketch/ns">
    <!-- Generator: Sketch 3.4.4 (17249) - http://www.bohemiancoding.com/sketch -->
    <title>appStoreButton Copy</title>
    <desc>Created with Sketch.</desc>
    <defs></defs>
    <g id="Web" stroke="none" stroke-width="1" fill="none" fill-rule="evenodd" sketch:type="MSPage">
        <g id="webSplash-Copy-2" sketch:type="MSArtboardGroup" transform="translate(-301.000000, -416.000000)" fill="#FFFFFF">
            <path d="M301,421.001003 C301,418.239025 303.229042,416 305.996673,416 L426.003327,416 C428.762913,416 431,418.23479 431,421.001003 L431,458.998997 C431,461.760975 428.770958,464 426.003327,464 L305.996673,464 C303.237087,464 301,461.76521 301,458.998997 L301,421.001003 Z M318.458107,434.76296 C317.652858,434.762569 317.000128,435.426889 317,436.244177 L317.001026,442.447167 C317.001219,443.267257 317.654205,443.928971 318.459518,443.928841 C319.265408,443.928906 319.918202,443.266801 319.917368,442.447232 L319.917432,436.243396 C319.917112,435.426237 319.263548,434.762439 318.458107,434.76296 Z M330.218078,429.192693 L331.235879,427.304623 C331.290204,427.205988 331.254543,427.080316 331.156092,427.024614 C331.056807,426.971192 330.934175,427.00748 330.881711,427.106832 L329.853583,429.014577 C328.988301,428.62362 328.020399,428.404135 326.99612,428.405373 C325.97447,428.40446 325.006824,428.622969 324.145262,429.011775 L323.116109,427.108981 C323.062554,427.008587 322.939473,426.9723 322.84224,427.026959 C322.743212,427.081098 322.707038,427.206965 322.761876,427.305404 L323.780255,429.192041 C321.779414,430.240217 320.427712,432.236043 320.428738,434.527448 L333.564848,434.52608 C333.565233,432.235 332.215839,430.243344 330.218078,429.192693 Z M320.482357,435.042643 L320.484602,444.655638 C320.483961,445.530062 321.180176,446.235816 322.040583,446.236012 L323.100074,446.236468 L323.101357,449.518587 C323.101164,450.335615 323.755113,451 324.558502,451 C325.364328,451 326.017122,450.335094 326.017378,449.517545 L326.016544,446.236077 L327.985316,446.235686 L327.986149,449.517675 C327.985957,450.334377 328.64029,450.999739 329.443936,450.998436 C330.249634,450.998958 330.902876,450.334051 330.902748,449.516372 L330.90185,446.235295 L331.964997,446.234448 C332.823352,446.234774 333.521555,445.527977 333.521747,444.653553 L333.52008,435.040427 L320.482357,435.042643 Z M336.998974,436.241897 C336.998846,435.423827 336.346052,434.76081 335.540675,434.761005 C334.73549,434.760354 334.08276,435.424543 334.082953,436.242679 L334.083915,442.445799 C334.08385,443.264716 334.736323,443.92656 335.542214,443.926821 C336.347399,443.926691 336.999808,443.264716 337,442.445147 L336.998974,436.241897 Z M355.48,431.67 C355.48,429.78 354.13,428.33 352.06,428.33 L350.38,428.33 C350.05,428.33 349.78,428.6 349.78,428.93 L349.78,434.4 C349.78,434.73 350.05,435 350.38,435 L352.06,435 C354.13,435 355.48,433.57 355.48,431.67 Z M361.25,432.58 C361.25,431.18 360.33,430.05 358.86,430.05 C357.39,430.05 356.47,431.18 356.47,432.58 C356.47,433.98 357.39,435.12 358.86,435.12 C360.33,435.12 361.25,433.98 361.25,432.58 Z M368.83,430.47 C368.83,430.28 368.67,430.11 368.46,430.11 C368.3,430.11 368.15,430.21 368.1,430.36 L366.98,434.02 L365.78,430.39 C365.72,430.22 365.57,430.11 365.4,430.11 C365.2,430.11 365.06,430.22 365,430.39 L363.8,434.02 L362.68,430.36 C362.63,430.21 362.47,430.11 362.31,430.11 C362.1,430.11 361.95,430.3 361.95,430.47 C361.95,430.5 361.96,430.54 361.97,430.57 L363.3,434.73 C363.36,434.92 363.53,435.06 363.74,435.06 L363.75,435.06 C363.97,435.06 364.16,434.92 364.22,434.73 L365.39,431.12 L366.56,434.73 C366.62,434.92 366.8,435.06 367.01,435.06 L367.02,435.06 C367.24,435.06 367.42,434.92 367.48,434.73 L368.81,430.57 C368.82,430.54 368.83,430.5 368.83,430.47 Z M373.82,434.69 L373.82,431.61 C373.82,430.56 373.29,430.05 372.28,430.05 C371.56,430.05 370.9,430.47 370.56,430.87 L370.56,430.47 C370.56,430.28 370.39,430.11 370.2,430.11 C369.98,430.11 369.81,430.28 369.81,430.47 L369.81,434.69 C369.81,434.89 369.98,435.06 370.18,435.06 C370.39,435.06 370.56,434.89 370.56,434.69 L370.56,431.47 C370.84,431.08 371.4,430.72 371.99,430.72 C372.64,430.72 373.07,430.99 373.07,431.84 L373.07,434.69 C373.07,434.89 373.24,435.06 373.44,435.06 C373.65,435.06 373.82,434.89 373.82,434.69 Z M376.07,434.69 L376.07,428.63 C376.07,428.44 375.9,428.27 375.71,428.27 C375.49,428.27 375.32,428.44 375.32,428.63 L375.32,434.69 C375.32,434.89 375.49,435.06 375.69,435.06 C375.9,435.06 376.07,434.89 376.07,434.69 Z M382.07,432.58 C382.07,431.18 381.15,430.05 379.68,430.05 C378.21,430.05 377.29,431.18 377.29,432.58 C377.29,433.98 378.21,435.12 379.68,435.12 C381.15,435.12 382.07,433.98 382.07,432.58 Z M387.06,434.69 L387.06,431.68 C387.06,430.51 386.21,430.05 385.19,430.05 C384.5,430.05 383.9,430.26 383.39,430.72 C383.32,430.78 383.29,430.86 383.29,430.94 C383.29,431.12 383.46,431.24 383.62,431.24 C383.69,431.24 383.77,431.21 383.83,431.16 C384.2,430.85 384.61,430.7 385.09,430.7 C385.79,430.7 386.31,431.07 386.31,431.72 L386.31,432.59 C385.92,432.14 385.37,431.93 384.71,431.93 C383.89,431.93 383.02,432.44 383.02,433.52 C383.02,434.57 383.89,435.12 384.71,435.12 C385.36,435.12 385.91,434.89 386.31,434.45 L386.31,434.67 C386.31,434.88 386.47,435.06 386.68,435.06 C386.89,435.06 387.06,434.89 387.06,434.69 Z M392.81,434.69 L392.81,428.63 C392.81,428.44 392.64,428.27 392.45,428.27 C392.23,428.27 392.06,428.44 392.06,428.63 L392.06,430.9 C391.67,430.37 391.08,430.05 390.43,430.05 C389.16,430.05 388.28,431.05 388.28,432.59 C388.28,434.16 389.17,435.12 390.43,435.12 C391.11,435.12 391.7,434.77 392.06,434.28 L392.06,434.69 C392.06,434.89 392.23,435.06 392.43,435.06 C392.64,435.06 392.81,434.89 392.81,434.69 Z M399.46,428.69 C399.46,428.34 398.83,428.23 398.5,428.23 C397.64,428.23 397.1,428.81 397.1,429.8 L397.1,430.17 L396.56,430.17 C396.38,430.17 396.24,430.31 396.24,430.49 C396.24,430.69 396.38,430.83 396.56,430.83 L397.1,430.83 L397.1,434.69 C397.1,434.89 397.27,435.06 397.47,435.06 C397.68,435.06 397.85,434.89 397.85,434.69 L397.85,430.83 L398.57,430.83 C398.75,430.83 398.89,430.69 398.89,430.51 C398.89,430.31 398.75,430.17 398.57,430.17 L397.85,430.17 L397.85,429.8 C397.85,429.19 398.12,428.85 398.61,428.85 C398.82,428.85 399,428.99 399.16,428.99 C399.31,428.99 399.46,428.86 399.46,428.69 Z M404.22,432.58 C404.22,431.18 403.3,430.05 401.83,430.05 C400.36,430.05 399.44,431.18 399.44,432.58 C399.44,433.98 400.36,435.12 401.83,435.12 C403.3,435.12 404.22,433.98 404.22,432.58 Z M407.86,430.44 C407.86,430.24 407.7,430.09 407.52,430.09 C406.96,430.09 406.48,430.57 406.19,430.95 L406.19,430.47 C406.19,430.28 406.02,430.11 405.83,430.11 C405.61,430.11 405.44,430.28 405.44,430.47 L405.44,434.69 C405.44,434.89 405.6,435.05 405.8,435.06 L405.81,435.06 C406.02,435.06 406.19,434.89 406.19,434.69 L406.19,431.58 C406.51,431.1 406.98,430.88 407.47,430.85 C407.69,430.84 407.86,430.66 407.86,430.44 Z M359.08,449.392 C359.08,449.312 359.064,449.216 359.032,449.136 L355.32,439.952 C355.144,439.52 354.728,439.232 354.264,439.232 C353.768,439.232 353.352,439.52 353.176,439.952 L349.496,449.136 C349.464,449.216 349.448,449.312 349.448,449.392 C349.448,449.76 349.752,450.096 350.168,450.096 C350.44,450.096 350.696,449.936 350.808,449.664 L351.608,447.632 L356.92,447.632 L357.72,449.664 C357.832,449.936 358.088,450.096 358.36,450.096 C358.792,450.096 359.08,449.712 359.08,449.392 Z M367.144,449.504 L367.144,444.576 C367.144,442.896 366.296,442.08 364.68,442.08 C363.528,442.08 362.472,442.752 361.928,443.392 L361.928,442.752 C361.928,442.448 361.656,442.176 361.352,442.176 C361,442.176 360.728,442.448 360.728,442.752 L360.728,449.504 C360.728,449.824 361,450.096 361.32,450.096 C361.656,450.096 361.928,449.824 361.928,449.504 L361.928,444.352 C362.376,443.728 363.272,443.152 364.216,443.152 C365.256,443.152 365.944,443.584 365.944,444.944 L365.944,449.504 C365.944,449.824 366.216,450.096 366.536,450.096 C366.872,450.096 367.144,449.824 367.144,449.504 Z M376.344,449.504 L376.344,439.808 C376.344,439.504 376.072,439.232 375.768,439.232 C375.416,439.232 375.144,439.504 375.144,439.808 L375.144,443.44 C374.52,442.592 373.576,442.08 372.536,442.08 C370.504,442.08 369.096,443.68 369.096,446.144 C369.096,448.656 370.52,450.192 372.536,450.192 C373.624,450.192 374.568,449.632 375.144,448.848 L375.144,449.504 C375.144,449.824 375.416,450.096 375.736,450.096 C376.072,450.096 376.344,449.824 376.344,449.504 Z M382.616,442.704 C382.616,442.384 382.36,442.144 382.072,442.144 C381.176,442.144 380.408,442.912 379.944,443.52 L379.944,442.752 C379.944,442.448 379.672,442.176 379.368,442.176 C379.016,442.176 378.744,442.448 378.744,442.752 L378.744,449.504 C378.744,449.824 379,450.08 379.32,450.096 L379.336,450.096 C379.672,450.096 379.944,449.824 379.944,449.504 L379.944,444.528 C380.456,443.76 381.208,443.408 381.992,443.36 C382.344,443.344 382.616,443.056 382.616,442.704 Z M391.224,446.128 C391.224,443.888 389.752,442.08 387.4,442.08 C385.048,442.08 383.576,443.888 383.576,446.128 C383.576,448.368 385.048,450.192 387.4,450.192 C389.752,450.192 391.224,448.368 391.224,446.128 Z M393.768,439.552 C393.336,439.552 392.968,439.92 392.968,440.368 C392.968,440.816 393.336,441.168 393.768,441.168 C394.216,441.168 394.584,440.816 394.584,440.368 C394.584,439.92 394.216,439.552 393.768,439.552 Z M394.376,449.504 L394.376,442.752 C394.376,442.448 394.104,442.176 393.8,442.176 C393.448,442.176 393.176,442.448 393.176,442.752 L393.176,449.504 C393.176,449.824 393.448,450.096 393.768,450.096 C394.104,450.096 394.376,449.824 394.376,449.504 Z M403.576,449.504 L403.576,439.808 C403.576,439.504 403.304,439.232 403,439.232 C402.648,439.232 402.376,439.504 402.376,439.808 L402.376,443.44 C401.752,442.592 400.808,442.08 399.768,442.08 C397.736,442.08 396.328,443.68 396.328,446.144 C396.328,448.656 397.752,450.192 399.768,450.192 C400.856,450.192 401.8,449.632 402.376,448.848 L402.376,449.504 C402.376,449.824 402.648,450.096 402.968,450.096 C403.304,450.096 403.576,449.824 403.576,449.504 Z M329.989683,432.109068 C329.686055,432.109394 329.438805,431.859289 329.438869,431.549768 C329.439895,431.243244 329.685671,430.990272 329.98994,430.98923 C330.291965,430.990076 330.539793,431.242983 330.539536,431.550093 C330.540177,431.858963 330.293311,432.109133 329.989683,432.109068 Z M324.008392,432.110176 C323.705919,432.109459 323.459438,431.859679 323.459374,431.551136 C323.459502,431.243765 323.705406,430.991054 324.008906,430.991119 C324.313431,430.990858 324.559849,431.243765 324.560233,431.551006 C324.560362,431.859354 324.313431,432.10998 324.008392,432.110176 Z M354.62,431.67 C354.62,433.1 353.68,434.26 352.06,434.26 L350.61,434.26 L350.61,429.07 L352.06,429.07 C353.71,429.07 354.62,430.23 354.62,431.67 Z M360.46,432.58 C360.46,433.57 359.89,434.45 358.86,434.45 C357.83,434.45 357.25,433.57 357.25,432.58 C357.25,431.6 357.83,430.72 358.86,430.72 C359.89,430.72 360.46,431.6 360.46,432.58 Z M381.28,432.58 C381.28,433.57 380.71,434.45 379.68,434.45 C378.65,434.45 378.07,433.57 378.07,432.58 C378.07,431.6 378.65,430.72 379.68,430.72 C380.71,430.72 381.28,431.6 381.28,432.58 Z M386.31,433.98 C386.02,434.38 385.51,434.58 384.98,434.58 C384.28,434.58 383.79,434.14 383.79,433.53 C383.79,432.91 384.28,432.47 384.98,432.47 C385.51,432.47 386.02,432.67 386.31,433.07 L386.31,433.98 Z M392.06,433.69 C391.79,434.11 391.21,434.45 390.61,434.45 C389.64,434.45 389.06,433.66 389.06,432.59 C389.06,431.52 389.64,430.72 390.61,430.72 C391.21,430.72 391.79,431.08 392.06,431.5 L392.06,433.69 Z M403.43,432.58 C403.43,433.57 402.86,434.45 401.83,434.45 C400.8,434.45 400.22,433.57 400.22,432.58 C400.22,431.6 400.8,430.72 401.83,430.72 C402.86,430.72 403.43,431.6 403.43,432.58 Z M356.52,446.448 L351.992,446.448 L354.264,440.704 L356.52,446.448 Z M375.144,447.904 C374.712,448.576 373.784,449.12 372.824,449.12 C371.272,449.12 370.344,447.856 370.344,446.144 C370.344,444.432 371.272,443.152 372.824,443.152 C373.784,443.152 374.712,443.728 375.144,444.4 L375.144,447.904 Z M389.96,446.128 C389.96,447.712 389.048,449.12 387.4,449.12 C385.752,449.12 384.824,447.712 384.824,446.128 C384.824,444.56 385.752,443.152 387.4,443.152 C389.048,443.152 389.96,444.56 389.96,446.128 Z M402.376,447.904 C401.944,448.576 401.016,449.12 400.056,449.12 C398.504,449.12 397.576,447.856 397.576,446.144 C397.576,444.432 398.504,443.152 400.056,443.152 C401.016,443.152 401.944,443.728 402.376,444.4 L402.376,447.904 Z" id="appStoreButton-Copy" sketch:type="MSShapeGroup"></path>
        </g>
    </g>
</svg>