<?xml version="1.0" encoding="UTF-8" standalone="no"?>
<svg width="172px" height="42px" viewBox="0 0 172 42" version="1.1" xmlns="http://www.w3.org/2000/svg" xmlns:xlink="http://www.w3.org/1999/xlink" xmlns:sketch="http://www.bohemiancoding.com/sketch/ns">
    <!-- Generator: Sketch 3.4.4 (17249) - http://www.bohemiancoding.com/sketch -->
    <title>logo + baby ears</title>
    <desc>Created with Sketch.</desc>
    <defs></defs>
    <g id="Web" stroke="none" stroke-width="1" fill="none" fill-rule="evenodd" sketch:type="MSPage">
        <g id="webSplash-Copy-2" sketch:type="MSArtboardGroup" transform="translate(-150.000000, -75.000000)" fill="#FFFFFF">
            <g id="logo-+-baby-ears" sketch:type="MSLayerGroup" transform="translate(150.000000, 75.000000)">
                <path d="M20.5461255,41.7164179 L19.7081184,41.2986801 C19.507622,41.1988009 14.7378461,38.7993393 9.92389312,34.282507 C3.43188702,28.1912284 0,21.1396252 0,13.8913006 C0,6.5953984 5.97785172,0.659674812 13.3251959,0.659674812 C15.8952882,0.659674812 18.4140669,1.40404445 20.5573397,2.77805766 C22.6431821,1.42766452 25.1317165,0.641791045 27.8013773,0.641791045 C35.1300311,0.641791045 41.0922509,6.57751464 41.0922509,13.8730794 C41.0922509,21.1396252 37.6607037,28.1912284 31.1683578,34.282507 C26.3544048,38.7993393 21.5846289,41.1988009 21.3841325,41.2986801 L20.5461255,41.7164179 L20.5461255,41.7164179 Z M13.3743133,4.5101844 C8.12396214,4.5101844 3.85239852,8.72417462 3.85239852,13.9040929 C3.85239852,26.9276401 17.0589419,35.2540666 20.5444379,37.2238806 C24.0252087,35.2497381 37.2398524,26.8953426 37.2398524,13.9040929 C37.2398524,8.70652753 32.9838144,4.49253731 27.7520265,4.49253731 C25.5720305,4.49253731 23.5611284,5.2217281 21.955917,6.44570313 C21.8290121,6.58421609 21.6852316,6.69942157 21.5299756,6.7903207 C19.5200862,8.51407444 18.2473249,11.0559203 18.2473249,13.8861129 C18.2473249,16.738614 19.5413495,19.4046554 21.7972859,21.1996634 C22.5951664,21.8346254 22.7207213,22.9876791 22.0767466,23.7748056 C21.4327719,24.5615991 20.2643022,24.6854617 19.4664216,24.0504997 C16.3322766,21.5566006 14.5346827,17.852045 14.5346827,13.8861129 C14.5346827,10.6966523 15.6984273,7.77056621 17.6283262,5.50041882 C16.3160759,4.854469 14.8573451,4.5101844 13.3743133,4.5101844 L13.3743133,4.5101844 Z" id="logo" fill-opacity="0.9" sketch:type="MSShapeGroup"></path>
                <text id="baby-ears" sketch:type="MSTextLayer" font-family="Proxima Nova Soft" font-size="30.8059701" font-weight="420" sketch:alignment="middle" letter-spacing="-1.33333337">
                    <tspan x="49.9537115" y="29">baby ears</tspan>
                </text>
            </g>
        </g>
    </g>
</svg>