<?xml version="1.0" encoding="UTF-8" standalone="no"?>
<svg width="172px" height="42px" viewBox="0 0 172 42" version="1.1" xmlns="http://www.w3.org/2000/svg" xmlns:xlink="http://www.w3.org/1999/xlink" xmlns:sketch="http://www.bohemiancoding.com/sketch/ns">
    <!-- Generator: Sketch 3.4.4 (17249) - http://www.bohemiancoding.com/sketch -->
    <title>logo</title>
    <desc>Created with Sketch.</desc>
    <defs></defs>
    <g id="Web" stroke="none" stroke-width="1" fill="none" fill-rule="evenodd" sketch:type="MSPage">
        <g id="webSplash-Copy-7" sketch:type="MSArtboardGroup" transform="translate(-150.000000, -75.000000)" fill-opacity="0.9" fill="#FFFFFF">
            <g id="logo-+-baby-ears" sketch:type="MSLayerGroup" transform="translate(150.000000, 75.000000)">
                <path d="M20.5461255,41.7164179 L19.7081184,41.2986801 C19.507622,41.1988009 14.7378461,38.7993393 9.92389312,34.282507 C3.43188702,28.1912284 0,21.1396252 0,13.8913006 C0,6.5953984 5.97785172,0.659674812 13.3251959,0.659674812 C15.8952882,0.659674812 18.4140669,1.40404445 20.5573397,2.77805766 C22.6431821,1.42766452 25.1317165,0.641791045 27.8013773,0.641791045 C35.1300311,0.641791045 41.0922509,6.57751464 41.0922509,13.8730794 C41.0922509,21.1396252 37.6607037,28.1912284 31.1683578,34.282507 C26.3544048,38.7993393 21.5846289,41.1988009 21.3841325,41.2986801 L20.5461255,41.7164179 L20.5461255,41.7164179 Z M13.3743133,4.5101844 C8.12396214,4.5101844 3.85239852,8.72417462 3.85239852,13.9040929 C3.85239852,26.9276401 17.0589419,35.2540666 20.5444379,37.2238806 C24.0252087,35.2497381 37.2398524,26.8953426 37.2398524,13.9040929 C37.2398524,8.70652753 32.9838144,4.49253731 27.7520265,4.49253731 C25.5720305,4.49253731 23.5611284,5.2217281 21.955917,6.44570313 C21.8290121,6.58421609 21.6852316,6.69942157 21.5299756,6.7903207 C19.5200862,8.51407444 18.2473249,11.0559203 18.2473249,13.8861129 C18.2473249,16.738614 19.5413495,19.4046554 21.7972859,21.1996634 C22.5951664,21.8346254 22.7207213,22.9876791 22.0767466,23.7748056 C21.4327719,24.5615991 20.2643022,24.6854617 19.4664216,24.0504997 C16.3322766,21.5566006 14.5346827,17.852045 14.5346827,13.8861129 C14.5346827,10.6966523 15.6984273,7.77056621 17.6283262,5.50041882 C16.3160759,4.854469 14.8573451,4.5101844 13.3743133,4.5101844 Z M66.4349055,21.5757612 C66.4349055,16.8008358 63.6623682,13.7510448 59.8116219,13.7510448 C57.8400398,13.7510448 56.1149055,14.6752239 54.9134727,16.2771343 L54.9134727,9.59223881 C54.9134727,8.88370149 54.2973533,8.26758209 53.588816,8.26758209 C52.7878607,8.26758209 52.1717413,8.88370149 52.1717413,9.59223881 L52.1717413,27.8293731 C52.1717413,28.5687164 52.7878607,29.1848358 53.527204,29.1848358 C54.2973533,29.1848358 54.9134727,28.5687164 54.9134727,27.8293731 L54.9134727,26.8743881 C56.0224876,28.3530746 57.8092339,29.3696716 59.8116219,29.3696716 C63.6623682,29.3696716 66.4349055,26.4431045 66.4349055,21.5757612 Z M63.5699503,21.5757612 C63.5699503,24.6871642 61.8756219,26.936 59.0414727,26.936 C57.3779503,26.936 55.652816,25.9810149 54.9134727,24.7795821 L54.9134727,18.4027463 C55.652816,17.2013134 57.3779503,16.1847164 59.0414727,16.1847164 C61.8756219,16.1847164 63.5699503,18.4643582 63.5699503,21.5757612 L63.5699503,21.5757612 Z M80.5969751,27.8293731 L80.5969751,18.9264478 C80.5969751,15.1373134 77.8244378,13.7510448 74.6206169,13.7510448 C72.6182288,13.7510448 70.369393,14.3979701 68.9523184,15.8150448 C68.7674826,16.0306866 68.6750647,16.2771343 68.6750647,16.5235821 C68.6750647,17.1705075 69.2603781,17.601791 69.8148856,17.601791 C70.0305274,17.601791 70.2769751,17.5093731 70.4926169,17.3553433 C71.6016318,16.4927761 72.8338706,16.0614925 74.2201393,16.0614925 C76.3149453,16.0614925 77.8552438,17.1705075 77.8552438,19.0496716 L77.8552438,21.5449552 C76.6846169,20.2202985 74.9902885,19.5733731 72.9570945,19.5733731 C70.4926169,19.5733731 67.7816915,21.0828657 67.7816915,24.4407164 C67.7816915,27.7061493 70.4926169,29.3696716 72.9570945,29.3696716 C74.9594826,29.3696716 76.6538109,28.6611343 77.8552438,27.3364776 L77.8552438,27.8293731 C77.8552438,28.7227463 78.5637811,29.1848358 79.1182885,29.1848358 L79.2107065,29.1848358 C79.9808557,29.1848358 80.5969751,28.5687164 80.5969751,27.8293731 L80.5969751,27.8293731 Z M77.8552438,25.7345672 C77.0234826,26.8743881 75.544796,27.4288955 74.0044975,27.4288955 C72.0021094,27.4288955 70.5542288,26.2274627 70.5542288,24.5023284 C70.5542288,22.7155821 72.0021094,21.4833433 74.0044975,21.4833433 C75.544796,21.4833433 77.0234826,22.0686567 77.8552438,23.2084776 L77.8552438,25.7345672 Z M97.9320597,21.5757612 C97.9320597,16.8008358 95.1595223,13.7510448 91.3087761,13.7510448 C89.337194,13.7510448 87.6120597,14.6752239 86.4106268,16.2771343 L86.4106268,9.59223881 C86.4106268,8.88370149 85.7945074,8.26758209 85.0859701,8.26758209 C84.2850149,8.26758209 83.6688955,8.88370149 83.6688955,9.59223881 L83.6688955,27.8293731 C83.6688955,28.5687164 84.2850149,29.1848358 85.0243582,29.1848358 C85.7945074,29.1848358 86.4106268,28.5687164 86.4106268,27.8293731 L86.4106268,26.8743881 C87.5196417,28.3530746 89.306388,29.3696716 91.3087761,29.3696716 C95.1595223,29.3696716 97.9320597,26.4431045 97.9320597,21.5757612 L97.9320597,21.5757612 Z M95.0671044,21.5757612 C95.0671044,24.6871642 93.3727761,26.936 90.5386268,26.936 C88.8751044,26.936 87.1499701,25.9810149 86.4106268,24.7795821 L86.4106268,18.4027463 C87.1499701,17.2013134 88.8751044,16.1847164 90.5386268,16.1847164 C93.3727761,16.1847164 95.0671044,18.4643582 95.0671044,21.5757612 L95.0671044,21.5757612 Z M112.617831,15.2913433 C112.617831,14.582806 112.032517,13.9358806 111.231562,13.9358806 C110.677055,13.9358806 110.153353,14.2747463 109.937711,14.7984478 L105.563264,25.8269851 L101.15801,14.7984478 C100.942368,14.2439403 100.418667,13.9358806 99.8949651,13.9358806 C99.0632039,13.9358806 98.5086964,14.6136119 98.5086964,15.2913433 C98.5086964,15.4453731 98.5395024,15.599403 98.6011143,15.7534328 L104.115383,29.1848358 L103.252816,31.1564179 C102.75992,32.2346269 102.082189,32.5734925 101.250428,32.5734925 C101.034786,32.6042985 100.788338,32.5734925 100.54189,32.5734925 C99.8641591,32.5734925 99.3096517,33.097194 99.3096517,33.8057313 C99.3096517,34.8223284 100.326249,35.0379701 101.281234,35.0379701 C103.283622,35.0379701 104.916338,34.113791 105.871323,31.8649552 L112.525413,15.7534328 C112.587025,15.630209 112.617831,15.4453731 112.617831,15.2913433 L112.617831,15.2913433 Z M134.411104,21.0520597 C134.411104,20.4667463 134.257074,19.8198209 134.133851,19.3269254 C133.271283,15.9998806 130.806806,13.7510448 127.202507,13.7510448 C122.889671,13.7510448 119.778268,17.2321194 119.778268,21.5449552 C119.778268,26.2274627 123.012895,29.3696716 127.448955,29.3696716 C129.328119,29.3696716 133.14806,28.5379104 133.14806,26.8743881 C133.14806,26.1966567 132.53194,25.7653731 132.039045,25.7653731 C131.823403,25.7653731 131.607761,25.8269851 131.422925,25.919403 C130.344716,26.7203582 128.989254,27.1516418 127.726209,27.1516418 C124.707224,27.1516418 122.858866,24.9952239 122.643224,22.4383284 L132.99403,22.4383284 C133.764179,22.4383284 134.411104,21.791403 134.411104,21.0520597 L134.411104,21.0520597 Z M131.761791,20.4975522 L122.643224,20.4975522 C122.766448,18.4335522 124.214328,15.9690746 127.171701,15.9690746 C130.344716,15.9690746 131.700179,18.4951642 131.761791,20.4975522 L131.761791,20.4975522 Z M148.542368,27.8293731 L148.542368,18.9264478 C148.542368,15.1373134 145.769831,13.7510448 142.56601,13.7510448 C140.563622,13.7510448 138.314786,14.3979701 136.897711,15.8150448 C136.712875,16.0306866 136.620458,16.2771343 136.620458,16.5235821 C136.620458,17.1705075 137.205771,17.601791 137.760278,17.601791 C137.97592,17.601791 138.222368,17.5093731 138.43801,17.3553433 C139.547025,16.4927761 140.779263,16.0614925 142.165532,16.0614925 C144.260338,16.0614925 145.800637,17.1705075 145.800637,19.0496716 L145.800637,21.5449552 C144.63001,20.2202985 142.935681,19.5733731 140.902487,19.5733731 C138.43801,19.5733731 135.727084,21.0828657 135.727084,24.4407164 C135.727084,27.7061493 138.43801,29.3696716 140.902487,29.3696716 C142.904875,29.3696716 144.599204,28.6611343 145.800637,27.3364776 L145.800637,27.8293731 C145.800637,28.7227463 146.509174,29.1848358 147.063681,29.1848358 L147.156099,29.1848358 C147.926249,29.1848358 148.542368,28.5687164 148.542368,27.8293731 L148.542368,27.8293731 Z M145.800637,25.7345672 C144.968875,26.8743881 143.490189,27.4288955 141.94989,27.4288955 C139.947502,27.4288955 138.499622,26.2274627 138.499622,24.5023284 C138.499622,22.7155821 139.947502,21.4833433 141.94989,21.4833433 C143.490189,21.4833433 144.968875,22.0686567 145.800637,23.2084776 L145.800637,25.7345672 Z M159.439005,15.1373134 C159.439005,14.4287761 158.915303,13.9050746 158.206766,13.9050746 C156.543244,13.9050746 155.187781,15.2913433 154.35602,16.4311642 L154.35602,15.2605373 C154.35602,14.552 153.7399,13.9358806 153.031363,13.9358806 C152.230408,13.9358806 151.614288,14.552 151.614288,15.2605373 L151.614288,27.8293731 C151.614288,28.5687164 152.199602,29.1540299 152.938945,29.1848358 L152.969751,29.1848358 C153.7399,29.1848358 154.35602,28.5687164 154.35602,27.8293731 L154.35602,18.649194 C155.249393,17.3245373 156.635661,16.7084179 158.052736,16.585194 C158.822885,16.5235821 159.439005,15.9382687 159.439005,15.1373134 L159.439005,15.1373134 Z M171.598686,24.8103881 C171.598686,18.9572537 162.480119,21.0212537 162.480119,18.0330746 C162.480119,16.8316418 163.650746,15.9382687 165.52991,15.9382687 C166.946985,15.9382687 168.271642,16.4003582 169.226627,17.0780896 C169.411462,17.2321194 169.627104,17.2937313 169.873552,17.2937313 C170.428059,17.2937313 170.951761,16.8316418 170.951761,16.2155224 C170.951761,15.9690746 170.859343,15.7226269 170.674507,15.537791 C169.50388,14.3979701 167.624716,13.7510448 165.499104,13.7510448 C161.864,13.7510448 159.830806,15.7842388 159.830806,18.1254925 C159.830806,23.7321791 168.918567,21.5757612 168.918567,24.872 C168.918567,26.2274627 167.809552,27.1824478 165.68394,27.1824478 C164.143642,27.1824478 162.603343,26.5663284 161.494328,25.7653731 C161.278686,25.6113433 161.063044,25.5497313 160.785791,25.5497313 C160.138865,25.5497313 159.584358,26.0426269 159.584358,26.6895522 C159.584358,26.9976119 159.707582,27.2440597 159.923224,27.4288955 C161.278686,28.7843582 163.527522,29.3696716 165.560716,29.3696716 C169.50388,29.3696716 171.598686,27.3364776 171.598686,24.8103881 L171.598686,24.8103881 Z" id="logo" sketch:type="MSShapeGroup"></path>
            </g>
        </g>
    </g>
</svg>