<?xml version="1.0" encoding="UTF-8" standalone="no"?>
<svg width="130px" height="48px" viewBox="0 0 130 48" version="1.1" xmlns="http://www.w3.org/2000/svg" xmlns:xlink="http://www.w3.org/1999/xlink" xmlns:sketch="http://www.bohemiancoding.com/sketch/ns">
    <!-- Generator: Sketch 3.4.4 (17249) - http://www.bohemiancoding.com/sketch -->
    <title>appStoreButton</title>
    <desc>Created with Sketch.</desc>
    <defs></defs>
    <g id="Web" stroke="none" stroke-width="1" fill="none" fill-rule="evenodd" sketch:type="MSPage">
        <g id="webSplash-Copy-2" sketch:type="MSArtboardGroup" transform="translate(-150.000000, -416.000000)" fill="#FFFFFF">
            <path d="M150,421.001003 C150,418.239025 152.229042,416 154.996673,416 L275.003327,416 C277.762913,416 280,418.23479 280,421.001003 L280,458.998997 C280,461.760975 277.770958,464 275.003327,464 L154.996673,464 C152.237087,464 150,461.76521 150,458.998997 L150,421.001003 Z M182.704583,439.763153 C182.676639,436.731116 185.24745,435.25602 185.365006,435.186405 C183.909048,433.113933 181.652362,432.830767 180.859341,432.80913 C178.963995,432.614395 177.125499,433.916393 176.159999,433.916393 C175.175228,433.916393 173.687472,432.827945 172.086015,432.859931 C170.024934,432.890975 168.094898,434.056564 167.036896,435.866567 C164.853441,439.557129 166.481878,444.980551 168.573794,447.963669 C169.620234,449.424654 170.843007,451.055914 172.442537,450.998528 C174.008342,450.934557 174.59323,450.022971 176.483759,450.022971 C178.35598,450.022971 178.905217,450.998528 180.537508,450.961839 C182.217978,450.934557 183.275981,449.494269 184.285805,448.020114 C185.495088,446.344639 185.980729,444.695504 186,444.610837 C185.960494,444.598607 182.73638,443.39727 182.704583,439.763153 Z M179.621151,430.846726 C180.46235,429.818486 181.038566,428.419591 180.878613,427 C179.659694,427.052682 178.135322,427.822215 177.258472,428.828818 C176.481832,429.715004 175.78806,431.167522 175.967285,432.53349 C177.336521,432.63321 178.742373,431.858973 179.621151,430.846726 Z M204.48,431.67 C204.48,429.78 203.13,428.33 201.06,428.33 L199.38,428.33 C199.05,428.33 198.78,428.6 198.78,428.93 L198.78,434.4 C198.78,434.73 199.05,435 199.38,435 L201.06,435 C203.13,435 204.48,433.57 204.48,431.67 Z M210.25,432.58 C210.25,431.18 209.33,430.05 207.86,430.05 C206.39,430.05 205.47,431.18 205.47,432.58 C205.47,433.98 206.39,435.12 207.86,435.12 C209.33,435.12 210.25,433.98 210.25,432.58 Z M217.83,430.47 C217.83,430.28 217.67,430.11 217.46,430.11 C217.3,430.11 217.15,430.21 217.1,430.36 L215.98,434.02 L214.78,430.39 C214.72,430.22 214.57,430.11 214.4,430.11 C214.2,430.11 214.06,430.22 214,430.39 L212.8,434.02 L211.68,430.36 C211.63,430.21 211.47,430.11 211.31,430.11 C211.1,430.11 210.95,430.3 210.95,430.47 C210.95,430.5 210.96,430.54 210.97,430.57 L212.3,434.73 C212.36,434.92 212.53,435.06 212.74,435.06 L212.75,435.06 C212.97,435.06 213.16,434.92 213.22,434.73 L214.39,431.12 L215.56,434.73 C215.62,434.92 215.8,435.06 216.01,435.06 L216.02,435.06 C216.24,435.06 216.42,434.92 216.48,434.73 L217.81,430.57 C217.82,430.54 217.83,430.5 217.83,430.47 Z M222.82,434.69 L222.82,431.61 C222.82,430.56 222.29,430.05 221.28,430.05 C220.56,430.05 219.9,430.47 219.56,430.87 L219.56,430.47 C219.56,430.28 219.39,430.11 219.2,430.11 C218.98,430.11 218.81,430.28 218.81,430.47 L218.81,434.69 C218.81,434.89 218.98,435.06 219.18,435.06 C219.39,435.06 219.56,434.89 219.56,434.69 L219.56,431.47 C219.84,431.08 220.4,430.72 220.99,430.72 C221.64,430.72 222.07,430.99 222.07,431.84 L222.07,434.69 C222.07,434.89 222.24,435.06 222.44,435.06 C222.65,435.06 222.82,434.89 222.82,434.69 Z M225.07,434.69 L225.07,428.63 C225.07,428.44 224.9,428.27 224.71,428.27 C224.49,428.27 224.32,428.44 224.32,428.63 L224.32,434.69 C224.32,434.89 224.49,435.06 224.69,435.06 C224.9,435.06 225.07,434.89 225.07,434.69 Z M231.07,432.58 C231.07,431.18 230.15,430.05 228.68,430.05 C227.21,430.05 226.29,431.18 226.29,432.58 C226.29,433.98 227.21,435.12 228.68,435.12 C230.15,435.12 231.07,433.98 231.07,432.58 Z M236.06,434.69 L236.06,431.68 C236.06,430.51 235.21,430.05 234.19,430.05 C233.5,430.05 232.9,430.26 232.39,430.72 C232.32,430.78 232.29,430.86 232.29,430.94 C232.29,431.12 232.46,431.24 232.62,431.24 C232.69,431.24 232.77,431.21 232.83,431.16 C233.2,430.85 233.61,430.7 234.09,430.7 C234.79,430.7 235.31,431.07 235.31,431.72 L235.31,432.59 C234.92,432.14 234.37,431.93 233.71,431.93 C232.89,431.93 232.02,432.44 232.02,433.52 C232.02,434.57 232.89,435.12 233.71,435.12 C234.36,435.12 234.91,434.89 235.31,434.45 L235.31,434.67 C235.31,434.88 235.47,435.06 235.68,435.06 C235.89,435.06 236.06,434.89 236.06,434.69 Z M241.81,434.69 L241.81,428.63 C241.81,428.44 241.64,428.27 241.45,428.27 C241.23,428.27 241.06,428.44 241.06,428.63 L241.06,430.9 C240.67,430.37 240.08,430.05 239.43,430.05 C238.16,430.05 237.28,431.05 237.28,432.59 C237.28,434.16 238.17,435.12 239.43,435.12 C240.11,435.12 240.7,434.77 241.06,434.28 L241.06,434.69 C241.06,434.89 241.23,435.06 241.43,435.06 C241.64,435.06 241.81,434.89 241.81,434.69 Z M248.46,428.69 C248.46,428.34 247.83,428.23 247.5,428.23 C246.64,428.23 246.1,428.81 246.1,429.8 L246.1,430.17 L245.56,430.17 C245.38,430.17 245.24,430.31 245.24,430.49 C245.24,430.69 245.38,430.83 245.56,430.83 L246.1,430.83 L246.1,434.69 C246.1,434.89 246.27,435.06 246.47,435.06 C246.68,435.06 246.85,434.89 246.85,434.69 L246.85,430.83 L247.57,430.83 C247.75,430.83 247.89,430.69 247.89,430.51 C247.89,430.31 247.75,430.17 247.57,430.17 L246.85,430.17 L246.85,429.8 C246.85,429.19 247.12,428.85 247.61,428.85 C247.82,428.85 248,428.99 248.16,428.99 C248.31,428.99 248.46,428.86 248.46,428.69 Z M253.22,432.58 C253.22,431.18 252.3,430.05 250.83,430.05 C249.36,430.05 248.44,431.18 248.44,432.58 C248.44,433.98 249.36,435.12 250.83,435.12 C252.3,435.12 253.22,433.98 253.22,432.58 Z M256.86,430.44 C256.86,430.24 256.7,430.09 256.52,430.09 C255.96,430.09 255.48,430.57 255.19,430.95 L255.19,430.47 C255.19,430.28 255.02,430.11 254.83,430.11 C254.61,430.11 254.44,430.28 254.44,430.47 L254.44,434.69 C254.44,434.89 254.6,435.05 254.8,435.06 L254.81,435.06 C255.02,435.06 255.19,434.89 255.19,434.69 L255.19,431.58 C255.51,431.1 255.98,430.88 256.47,430.85 C256.69,430.84 256.86,430.66 256.86,430.44 Z M199.792,439.552 C199.36,439.552 198.992,439.92 198.992,440.368 C198.992,440.816 199.36,441.168 199.792,441.168 C200.24,441.168 200.608,440.816 200.608,440.368 C200.608,439.92 200.24,439.552 199.792,439.552 Z M200.4,449.504 L200.4,442.752 C200.4,442.448 200.128,442.176 199.824,442.176 C199.472,442.176 199.2,442.448 199.2,442.752 L199.2,449.504 C199.2,449.824 199.472,450.096 199.792,450.096 C200.128,450.096 200.4,449.824 200.4,449.504 Z M210.48,442.544 C210.48,440.8 209.28,439.328 207.136,439.328 L203.808,439.328 C203.28,439.328 202.848,439.76 202.848,440.288 L202.848,449.44 C202.848,449.808 203.136,450.096 203.504,450.096 C203.888,450.096 204.176,449.808 204.176,449.44 L204.176,445.76 L207.136,445.76 C209.248,445.76 210.48,444.288 210.48,442.544 Z M218.624,449.504 L218.624,444.544 C218.624,442.864 217.776,442.08 216.16,442.08 C214.992,442.08 213.936,442.752 213.392,443.392 L213.392,439.808 C213.392,439.504 213.12,439.232 212.816,439.232 C212.464,439.232 212.192,439.504 212.192,439.808 L212.192,449.504 C212.192,449.824 212.464,450.096 212.784,450.096 C213.12,450.096 213.392,449.824 213.392,449.504 L213.392,444.352 C213.856,443.728 214.752,443.152 215.68,443.152 C216.72,443.152 217.424,443.552 217.424,444.912 L217.424,449.504 C217.424,449.824 217.696,450.096 218.016,450.096 C218.352,450.096 218.624,449.824 218.624,449.504 Z M228.224,446.128 C228.224,443.888 226.752,442.08 224.4,442.08 C222.048,442.08 220.576,443.888 220.576,446.128 C220.576,448.368 222.048,450.192 224.4,450.192 C226.752,450.192 228.224,448.368 228.224,446.128 Z M236.592,449.504 L236.592,444.576 C236.592,442.896 235.744,442.08 234.128,442.08 C232.976,442.08 231.92,442.752 231.376,443.392 L231.376,442.752 C231.376,442.448 231.104,442.176 230.8,442.176 C230.448,442.176 230.176,442.448 230.176,442.752 L230.176,449.504 C230.176,449.824 230.448,450.096 230.768,450.096 C231.104,450.096 231.376,449.824 231.376,449.504 L231.376,444.352 C231.824,443.728 232.72,443.152 233.664,443.152 C234.704,443.152 235.392,443.584 235.392,444.944 L235.392,449.504 C235.392,449.824 235.664,450.096 235.984,450.096 C236.32,450.096 236.592,449.824 236.592,449.504 Z M246.048,445.872 C246.048,445.6 245.984,445.312 245.936,445.072 C245.536,443.296 244.272,442.08 242.352,442.08 C240.144,442.08 238.544,443.888 238.544,446.128 C238.544,448.544 240.192,450.192 242.48,450.192 C243.424,450.192 245.424,449.728 245.424,448.896 C245.424,448.592 245.152,448.4 244.944,448.4 C244.848,448.4 244.752,448.432 244.672,448.48 C244.064,448.96 243.328,449.2 242.592,449.2 C240.928,449.2 239.904,447.984 239.808,446.528 L245.392,446.528 C245.76,446.528 246.048,446.224 246.048,445.872 Z M244.88,445.648 L239.808,445.648 C239.872,444.464 240.688,443.072 242.336,443.072 C244.096,443.072 244.864,444.496 244.88,445.648 Z M203.62,431.67 C203.62,433.1 202.68,434.26 201.06,434.26 L199.61,434.26 L199.61,429.07 L201.06,429.07 C202.71,429.07 203.62,430.23 203.62,431.67 Z M209.46,432.58 C209.46,433.57 208.89,434.45 207.86,434.45 C206.83,434.45 206.25,433.57 206.25,432.58 C206.25,431.6 206.83,430.72 207.86,430.72 C208.89,430.72 209.46,431.6 209.46,432.58 Z M230.28,432.58 C230.28,433.57 229.71,434.45 228.68,434.45 C227.65,434.45 227.07,433.57 227.07,432.58 C227.07,431.6 227.65,430.72 228.68,430.72 C229.71,430.72 230.28,431.6 230.28,432.58 Z M235.31,433.98 C235.02,434.38 234.51,434.58 233.98,434.58 C233.28,434.58 232.79,434.14 232.79,433.53 C232.79,432.91 233.28,432.47 233.98,432.47 C234.51,432.47 235.02,432.67 235.31,433.07 L235.31,433.98 Z M241.06,433.69 C240.79,434.11 240.21,434.45 239.61,434.45 C238.64,434.45 238.06,433.66 238.06,432.59 C238.06,431.52 238.64,430.72 239.61,430.72 C240.21,430.72 240.79,431.08 241.06,431.5 L241.06,433.69 Z M252.43,432.58 C252.43,433.57 251.86,434.45 250.83,434.45 C249.8,434.45 249.22,433.57 249.22,432.58 C249.22,431.6 249.8,430.72 250.83,430.72 C251.86,430.72 252.43,431.6 252.43,432.58 Z M209.104,442.544 C209.104,443.744 208.24,444.576 206.976,444.576 L204.176,444.576 L204.176,440.512 L206.976,440.512 C208.24,440.512 209.104,441.344 209.104,442.544 Z M226.96,446.128 C226.96,447.712 226.048,449.12 224.4,449.12 C222.752,449.12 221.824,447.712 221.824,446.128 C221.824,444.56 222.752,443.152 224.4,443.152 C226.048,443.152 226.96,444.56 226.96,446.128 Z" id="appStoreButton" sketch:type="MSShapeGroup"></path>
        </g>
    </g>
</svg>